<svg xmlns="http://www.w3.org/2000/svg" width="10200" height="170" viewBox="0 0 10200 170">
<path d="M1060,170 L1156.6,85.4 L1462.5,75.4 L1768.4,85.4 L1865,170 Z" fill="#5c7f96"/>
<path d="M1156.6,85.4 L1462.5,75.4 L1768.4,85.4" stroke="#9fc2d4" stroke-width="3" fill="none"/>
<path d="M1289.8,127.4 L1354.9,127.4" stroke="#a8cade" stroke-width="2" opacity="0.27"/>
<path d="M1453.7,111.8 L1524.1,111.8" stroke="#a8cade" stroke-width="2" opacity="0.34"/>
<path d="M1675.5,131.3 L1746.2,131.3" stroke="#a8cade" stroke-width="2" opacity="0.30"/>
<path d="M1239.6,114.1 L1325.6,114.1" stroke="#a8cade" stroke-width="2" opacity="0.19"/>
<path d="M1242.8,113.3 L1327.8,113.3" stroke="#a8cade" stroke-width="2" opacity="0.30"/>
<path d="M1472.1,87.9 L1519.8,87.9" stroke="#a8cade" stroke-width="2" opacity="0.23"/>
<path d="M2916.8,170 L3080.3,81.4 L3598.2,68.7 L4116.1,81.4 L4279.6,170 Z" fill="#5c7f96"/>
<path d="M3080.3,81.4 L3598.2,68.7 L4116.1,81.4" stroke="#9fc2d4" stroke-width="3" fill="none"/>
<path d="M4029.7,106.9 L4147.7,106.9" stroke="#a8cade" stroke-width="2" opacity="0.19"/>
<path d="M3697.8,117.1 L3768.8,117.1" stroke="#a8cade" stroke-width="2" opacity="0.19"/>
<path d="M3442.8,111.9 L3525.9,111.9" stroke="#a8cade" stroke-width="2" opacity="0.27"/>
<path d="M3419.4,85 L3502.3,85" stroke="#a8cade" stroke-width="2" opacity="0.22"/>
<path d="M3750.2,128.2 L3839.7,128.2" stroke="#a8cade" stroke-width="2" opacity="0.16"/>
<path d="M3181.4,126 L3247.4,126" stroke="#a8cade" stroke-width="2" opacity="0.16"/>
<path d="M4752.6,170 L4837.1,77.6 L5104.7,68.6 L5372.3,77.6 L5456.8,170 Z" fill="#5c7f96"/>
<path d="M4837.1,77.6 L5104.7,68.6 L5372.3,77.6" stroke="#9fc2d4" stroke-width="3" fill="none"/>
<path d="M4986.8,120.5 L5090.1,120.5" stroke="#a8cade" stroke-width="2" opacity="0.31"/>
<path d="M5229.3,108.4 L5302.7,108.4" stroke="#a8cade" stroke-width="2" opacity="0.36"/>
<path d="M5209.1,127.7 L5262.7,127.7" stroke="#a8cade" stroke-width="2" opacity="0.39"/>
<path d="M5165.6,118.8 L5198.5,118.8" stroke="#a8cade" stroke-width="2" opacity="0.31"/>
<path d="M5020.1,95.9 L5099.7,95.9" stroke="#a8cade" stroke-width="2" opacity="0.23"/>
<path d="M5286.2,115.7 L5356.4,115.7" stroke="#a8cade" stroke-width="2" opacity="0.32"/>
<path d="M6264.8,170 L6423.7,93.4 L6927,83.9 L7430.2,93.4 L7589.1,170 Z" fill="#5c7f96"/>
<path d="M6423.7,93.4 L6927,83.9 L7430.2,93.4" stroke="#9fc2d4" stroke-width="3" fill="none"/>
<path d="M6597.4,108.6 L6656.1,108.6" stroke="#a8cade" stroke-width="2" opacity="0.20"/>
<path d="M7027.7,126.1 L7075.6,126.1" stroke="#a8cade" stroke-width="2" opacity="0.31"/>
<path d="M7178.1,105.9 L7256.4,105.9" stroke="#a8cade" stroke-width="2" opacity="0.22"/>
<path d="M6887,104.3 L6962.8,104.3" stroke="#a8cade" stroke-width="2" opacity="0.39"/>
<path d="M7175.2,110.7 L7256.8,110.7" stroke="#a8cade" stroke-width="2" opacity="0.26"/>
<path d="M6548.9,114.9 L6623.9,114.9" stroke="#a8cade" stroke-width="2" opacity="0.24"/>
</svg>
